<svg width="16" height="20" viewBox="0 0 16 20" fill="none" xmlns="http://www.w3.org/2000/svg">
<path d="M8.05895 0.0341797C2.77496 0.0341797 0.111877 3.82051 0.111877 6.9793C0.111877 8.89355 0.834339 10.5916 2.39 11.2297C2.64313 11.3352 2.87516 11.235 2.94899 10.9502C3.00172 10.7551 3.12301 10.2646 3.17574 10.059C3.24957 9.77949 3.22321 9.68457 3.01754 9.43672C2.5693 8.90937 2.28453 8.22383 2.28453 7.25879C2.28453 4.44805 4.38864 1.93262 7.75836 1.93262C10.7431 1.93262 12.3832 3.75723 12.3832 6.19355C12.3832 9.3998 10.9646 12.1051 8.86051 12.1051C7.69508 12.1051 6.82496 11.1453 7.10446 9.96406C7.43668 8.55605 8.08532 7.0373 8.08532 6.01953C8.08532 5.10723 7.59488 4.34785 6.58766 4.34785C5.40113 4.34785 4.44137 5.57656 4.44137 7.22715C4.44137 8.27656 4.79469 8.98848 4.79469 8.98848C4.79469 8.98848 3.57653 14.1459 3.36559 15.0477C2.93844 16.8459 3.30231 19.0502 3.33395 19.2717C3.34977 19.4035 3.52379 19.4352 3.59762 19.335C3.70836 19.1926 5.12164 17.4418 5.6068 15.6963C5.74391 15.2006 6.38727 12.6377 6.38727 12.6377C6.77223 13.376 7.90074 14.0246 9.10309 14.0246C12.6785 14.0246 15.1043 10.7656 15.1043 6.40449C15.099 3.10332 12.3041 0.0341797 8.05895 0.0341797Z" fill="white"/>
</svg>
