<svg width="18" height="14" viewBox="0 0 18 14" fill="none" xmlns="http://www.w3.org/2000/svg">
<path d="M17.1274 1.89102C16.5104 2.16523 15.8512 2.3498 15.1551 2.42891C15.8617 2.00176 16.4102 1.33203 16.6633 0.530469C15.9988 0.925977 15.2658 1.21074 14.4854 1.36367C13.8578 0.699219 12.9666 0.277344 11.9805 0.277344C9.76564 0.277344 8.13615 2.34453 8.63712 4.49082C5.78419 4.34844 3.25294 2.98262 1.56017 0.904882C0.663684 2.44473 1.09611 4.46445 2.62013 5.4875C2.05587 5.47168 1.52853 5.31348 1.06447 5.06035C1.02755 6.65293 2.16661 8.14004 3.8172 8.46699C3.33204 8.59883 2.8047 8.63047 2.26681 8.525C2.7045 9.89082 3.97013 10.8822 5.47306 10.9086C4.02814 12.0371 2.21407 12.5434 0.389465 12.3324C1.90822 13.308 3.71173 13.8723 5.65236 13.8723C12.0227 13.8723 15.6244 8.48809 15.4082 3.66289C16.0885 3.18301 16.6686 2.58184 17.1274 1.89102Z" fill="white"/>
</svg>
